<?xml version="1.0" encoding="UTF-8"?>
<svg xmlns="http://www.w3.org/2000/svg" xmlns:xlink="http://www.w3.org/1999/xlink" width="32px" height="32px" viewBox="0 0 32 32" version="1.1">
    <rect fill="#fff" x="0" width="32" height="32" rx="4" />
    <g transform="scale(.8) translate(3.7 3.7)">
    <path fill="#222330" d="M 23.214844 0.28125 C 23.085938 0.101562 22.882812 0 22.667969 0 L 16 0 C 15.714844 0.00390625 15.464844 0.183594 15.375 0.453125 L 4.707031 31.121094 C 4.636719 31.324219 4.671875 31.546875 4.796875 31.71875 C 4.917969 31.894531 5.121094 32 5.332031 32 L 12 32 C 12.285156 31.996094 12.535156 31.816406 12.625 31.546875 L 23.292969 0.878906 C 23.363281 0.679688 23.335938 0.457031 23.214844 0.28125 Z M 23.214844 0.28125 "/>
    <circle fill="#222330" cx="23.3" cy="28" r="4"/>
    </g>
</svg>
